<svg id="Layer_1" data-name="Layer 1" xmlns="http://www.w3.org/2000/svg" viewBox="0 0 280 280"><defs><style>.cls-1{fill:#fff}.cls-2{fill:#27a8e0}.cls-3{fill:#ec5956}</style></defs><title>kartinka_landing_2</title><circle class="cls-1" cx="140" cy="140" r="139"/><path class="cls-2" d="M5604 3199c-77.196 0-140-62.804-140-140s62.804-140 140-140 140 62.804 140 140-62.804 140-140 140zm0-278c-76.094 0-138 61.907-138 138s61.906 138 138 138 138-61.907 138-138-61.906-138-138-138z" transform="translate(-5464 -2919)"/><polygon class="cls-2" points="213.231 188.255 211.231 184.791 212.829 183.868 212.829 182.023 216.829 182.023 216.829 186.178 213.231 188.255"/><path class="cls-2" d="M5651.91 3121.874l-2-3.464 6.331-3.655 2 3.464zm12.661-7.31l-2-3.463 6.33-3.655 2 3.464z" transform="translate(-5464 -2919)"/><path class="cls-2" d="M5613.929 3143.803l-2-3.464 6.33-3.655 2 3.464zm12.66-7.31l-2-3.464 6.33-3.655 2 3.464zm12.661-7.31l-2-3.463 6.33-3.655 2 3.464z" transform="translate(-5464 -2919)"/><polygon class="cls-2" points="140 230.535 136.401 228.458 138.401 224.994 140 225.916 141.598 224.994 143.598 228.458 140 230.535"/><path class="cls-2" d="M5594.071 3143.803l-6.33-3.655 2-3.464 6.33 3.655zm-12.66-7.31l-6.33-3.655 2-3.464 6.33 3.655z" transform="translate(-5464 -2919)"/><path class="cls-2" d="M5568.75 3129.184l-6.33-3.655 2-3.464 6.33 3.655zm-12.66-7.31l-6.331-3.655 2-3.464 6.33 3.655zm-12.661-7.31l-6.33-3.654 2-3.464 6.33 3.655z" transform="translate(-5464 -2919)"/><polygon class="cls-2" points="66.769 188.255 63.17 186.178 63.17 182.023 67.17 182.023 67.17 183.868 68.769 184.791 66.769 188.255"/><path class="cls-2" d="M5531.17 3093.713h-4v-7.31h4v7.31zm0-14.62h-4v-7.309h4v7.31z" transform="translate(-5464 -2919)"/><path class="cls-2" d="M5531.17 3064.475h-4v-7.31h4v7.31zm0-14.62h-4v-7.31h4v7.31zm0-14.619h-4v-7.31h4v7.31z" transform="translate(-5464 -2919)"/><polygon class="cls-2" points="67.17 101.617 63.17 101.617 63.17 97.462 66.769 95.385 68.769 98.849 67.17 99.772 67.17 101.617"/><path class="cls-2" d="M5539.099 3014.194l-2-3.464 6.33-3.654 2 3.464zm12.66-7.31l-2-3.463 6.33-3.655 2 3.464z" transform="translate(-5464 -2919)"/><path class="cls-2" d="M5564.42 2999.575l-2-3.464 6.33-3.654 2 3.463zm12.66-7.31l-2-3.463 6.331-3.655 2 3.464zm12.661-7.309l-2-3.464 6.33-3.655 2 3.464z" transform="translate(-5464 -2919)"/><polygon class="cls-2" points="138.401 58.646 136.401 55.182 140 53.104 143.598 55.182 141.598 58.646 140 57.724 138.401 58.646"/><path class="cls-2" d="M5630.92 2992.266l-6.331-3.655 2-3.464 6.33 3.655zm-12.661-7.31l-6.33-3.655 2-3.464 6.33 3.655z" transform="translate(-5464 -2919)"/><path class="cls-2" d="M5668.901 3014.195l-6.33-3.655 2-3.464 6.33 3.655zm-12.66-7.31l-6.33-3.655 2-3.464 6.33 3.655zm-12.66-7.31l-6.331-3.655 2-3.463 6.33 3.654z" transform="translate(-5464 -2919)"/><polygon class="cls-2" points="216.829 101.617 212.829 101.617 212.829 99.772 211.231 98.849 213.231 95.385 216.829 97.462 216.829 101.617"/><path class="cls-2" d="M5680.83 3049.855h-4v-7.31h4v7.31zm0-14.619h-4v-7.31h4v7.31z" transform="translate(-5464 -2919)"/><path class="cls-2" d="M5680.83 3093.713h-4v-7.31h4v7.31zm0-14.62h-4v-7.309h4v7.31zm0-14.618h-4v-7.31h4v7.31z" transform="translate(-5464 -2919)"/><rect class="cls-2" x="5545.50012" y="2962.70858" width="3.99976" height="45.3802" transform="matrix(0.51129, -0.85941, 0.85941, 0.51129, -5318.57376, 3307.53438)"/><polygon class="cls-2" points="100.332 207.731 63 186.178 63 140 67 140 67 183.868 102.332 204.268 100.332 207.731"/><polygon class="cls-2" points="178 208.498 176 205.034 212.659 183.868 212.659 140 216.659 140 216.659 186.178 178 208.498"/><polygon class="cls-2" points="103.441 78.732 101.441 75.268 139.829 53.105 177.005 74.568 175.005 78.032 139.829 57.724 103.441 78.732"/><rect class="cls-2" x="5508.50012" y="3028.70858" width="3.99976" height="45.3802" transform="matrix(0.51129, -0.85941, 0.85941, 0.51129, -5393.37665, 3307.99094)"/><rect class="cls-2" x="5636.87989" y="2981.06356" width="45.37986" height="3.99984" transform="translate(-6184.0437 543.57327) rotate(-32.09139)"/><circle class="cls-3" cx="5679" cy="2971" r="5.79284" transform="translate(-5531.925 -2785.38173) rotate(-1.34001)"/><circle class="cls-1" cx="5679" cy="2971" r="2.53437" transform="translate(-5531.925 -2785.38173) rotate(-1.34001)"/><rect class="cls-2" x="5677.08692" y="3047.85653" width="45.37986" height="3.99984" transform="translate(-6213.38532 575.13995) rotate(-32.09139)"/><circle class="cls-3" cx="5719.20713" cy="3037.79287" r="5.79284" transform="translate(-5533.47598 -2784.4232) rotate(-1.34001)"/><circle class="cls-1" cx="5719.20713" cy="3037.79287" r="2.53437" transform="translate(-5533.47598 -2784.4232) rotate(-1.34001)"/><path class="cls-2" d="M5675.135 3148.027l-5.165-3.054 2.035-3.443 5.165 3.054zm-10.33-6.108l-5.164-3.054 2.035-3.443 5.165 3.054zm-10.328-6.108l-5.165-3.054 2.035-3.444 5.165 3.055zm-10.33-6.108l-5.165-3.054 2.036-3.443 5.165 3.054z" transform="translate(-5464 -2919)"/><path class="cls-2" d="M5533.927 3147.52l-2.076-3.418 5.128-3.116 2.076 3.419zm10.255-6.231l-2.077-3.419 5.128-3.116 2.077 3.418zm10.255-6.232l-2.077-3.419 5.128-3.116 2.076 3.42zm10.254-6.232l-2.076-3.419 5.128-3.115 2.076 3.418z" transform="translate(-5464 -2919)"/><path class="cls-2" d="M5641.927 3085.954l-2.076-3.419 5.128-3.116 2.076 3.42zm10.255-6.232l-2.077-3.418 5.128-3.116 2.077 3.418zm10.255-6.232l-2.077-3.418 5.128-3.116 2.076 3.419zm10.254-6.231l-2.076-3.42 5.128-3.114 2.076 3.418z" transform="translate(-5464 -2919)"/><path class="cls-2" d="M5642 2998h-4v-4h4v4zm0-10h-4v-6h4v6zm0-12h-4v-6h4v6zm0-12h-4v-6h4v6zm0-12h-4v-6h4v6z" transform="translate(-5464 -2919)"/><path class="cls-2" d="M5642 3125h-4v-6h4v6zm0-12h-4v-6h4v6zm0-12h-4v-6h4v6zm0-12h-4v-6h4v6z" transform="translate(-5464 -2919)"/><path class="cls-2" d="M5568 2996.793h-4v-4h4v4zm0-10h-4v-6h4v6zm0-12h-4v-6h4v6zm0-12h-4v-6h4v6zm0-12h-4v-6h4v6z" transform="translate(-5464 -2919)"/><rect class="cls-2" x="100" y="201" width="4" height="52"/><path class="cls-2" d="M5717.135 3085.027l-5.165-3.054 2.035-3.443 5.165 3.054zm-10.33-6.108l-5.164-3.054 2.035-3.443 5.165 3.054zm-10.328-6.108l-5.165-3.054 2.035-3.444 5.165 3.055zm-10.33-6.108l-5.165-3.054 2.036-3.443 5.165 3.054z" transform="translate(-5464 -2919)"/><rect class="cls-2" x="174" y="202.20703" width="4" height="52"/><path class="cls-2" d="M5492.146 3083.368l-2.077-3.418 5.128-3.116 2.076 3.419zm10.254-6.231l-2.076-3.42 5.128-3.114 2.076 3.418zm10.255-6.232l-2.076-3.418 5.128-3.116 2.076 3.418zm10.255-6.232l-2.076-3.419 5.128-3.115 2.076 3.419z" transform="translate(-5464 -2919)"/><path class="cls-2" d="M5563.854 3085.954l-5.127-3.116 2.076-3.419 5.128 3.116zm-10.254-6.232l-5.128-3.116 2.076-3.418 5.128 3.116zm-10.255-6.232l-5.128-3.115 2.076-3.419 5.128 3.116zm-10.255-6.231l-5.128-3.116 2.076-3.418 5.128 3.115z" transform="translate(-5464 -2919)"/><path class="cls-2" d="M5567.781 3125h-4v-6h4v6zm0-12h-4v-6h4v6zm0-12h-4v-6h4v6zm0-12h-4v-6h4v6z" transform="translate(-5464 -2919)"/><rect class="cls-2" x="99.31152" y="75.50049" width="4" height="45.38038"/><rect class="cls-2" x="5525.12315" y="3046.30699" width="44.99979" height="3.9993" transform="translate(-6240.2127 407.50853) rotate(-31.30687)"/><rect class="cls-2" x="173.68848" y="75.50049" width="4" height="45.38038"/><rect class="cls-2" x="5655.3773" y="3025.80675" width="3.9993" height="44.99979" transform="translate(-5351.10696 3378.42737) rotate(-58.68738)"/><circle class="cls-3" cx="140" cy="56.20716" r="5.79284"/><circle class="cls-1" cx="140" cy="56.20716" r="2.53437"/><circle class="cls-3" cx="63.79284" cy="54.79284" r="5.79284"/><circle class="cls-1" cx="63.79284" cy="54.79284" r="2.53437"/><circle class="cls-3" cx="26.79284" cy="120.79284" r="5.79284"/><circle class="cls-1" cx="26.79284" cy="120.79284" r="2.53437"/><circle class="cls-3" cx="5679.16474" cy="3105.42629" r="5.79284" transform="translate(-6257.59203 184.34607) rotate(-28.65188)"/><circle class="cls-1" cx="5679.16474" cy="3105.42629" r="2.53437" transform="translate(-6257.59203 184.34607) rotate(-28.65188)"/><circle class="cls-3" cx="5529.79284" cy="3104.79284" r="5.79284" transform="translate(-5492.77947 -2867.17642) rotate(-0.53556)"/><circle class="cls-1" cx="5529.79284" cy="3104.79284" r="2.53437" transform="translate(-5492.77947 -2867.17642) rotate(-0.53556)"/><circle class="cls-3" cx="140" cy="227.20716" r="5.79284"/><circle class="cls-3" cx="66.20716" cy="98.79284" r="5.79284"/><circle class="cls-3" cx="214" cy="98.79284" r="5.79284"/><circle class="cls-3" cx="175.79284" cy="29.79284" r="5.79284"/><circle class="cls-3" cx="102.20716" cy="29.79284" r="5.79284"/><circle class="cls-3" cx="102.20716" cy="250.20716" r="5.79284"/><circle class="cls-3" cx="65.20716" cy="228.20716" r="5.79284"/><circle class="cls-3" cx="214.79284" cy="229.20716" r="5.79284"/><circle class="cls-3" cx="255.20716" cy="165.20716" r="5.79284"/><circle class="cls-3" cx="175.79284" cy="250.20716" r="5.79284"/><circle class="cls-3" cx="176" cy="206" r="8"/><path class="cls-3" d="M5640 3136a11 11 0 1 1 11-11 11.012 11.012 0 0 1-11 11zm0-16a5 5 0 1 0 5 5 5.006 5.006 0 0 0-5-5z" transform="translate(-5464 -2919)"/><circle class="cls-3" cx="176.20716" cy="165.79284" r="5.79284"/><circle class="cls-3" cx="26.42575" cy="163.20716" r="5.79284"/><circle class="cls-3" cx="101.57425" cy="165.79284" r="5.79284"/><circle class="cls-3" cx="5565.20632" cy="3037.36791" r="5.79284" transform="translate(-6231.93849 415.69259) rotate(-31.31266)"/><circle class="cls-3" cx="5639.79368" cy="3037.36791" r="5.79284" transform="translate(-5350.2088 3358.14771) rotate(-58.68734)"/><circle class="cls-3" cx="102" cy="77" r="8"/><path class="cls-3" d="M5566 3007a11 11 0 1 1 11-11 11.012 11.012 0 0 1-11 11zm0-16a5 5 0 1 0 5 5 5.006 5.006 0 0 0-5-5z" transform="translate(-5464 -2919)"/><circle class="cls-3" cx="65" cy="141" r="8"/><path class="cls-3" d="M5529 3071a11 11 0 1 1 11-11 11.012 11.012 0 0 1-11 11zm0-16a5 5 0 1 0 5 5 5.006 5.006 0 0 0-5-5z" transform="translate(-5464 -2919)"/><circle class="cls-3" cx="215" cy="141" r="8"/><path class="cls-3" d="M5679 3071a11 11 0 1 1 11-11 11.012 11.012 0 0 1-11 11zm0-16a5 5 0 1 0 5 5 5.006 5.006 0 0 0-5-5z" transform="translate(-5464 -2919)"/><polygon class="cls-2" points="172.585 68.077 132 91.595 132 130.843 132 178.032 99.466 196.926 107.474 210.766 148 187.248 148 184.608 148 130.843 148 100.811 180.594 81.917 172.585 68.077"/><circle class="cls-1" cx="139.91" cy="141" r="8"/><path class="cls-3" d="M5603.91 3071a11 11 0 1 1 11-11 11.012 11.012 0 0 1-11 11zm0-16a5 5 0 1 0 5 5 5.006 5.006 0 0 0-5-5z" transform="translate(-5464 -2919)"/><circle class="cls-1" cx="102" cy="206" r="8"/><path class="cls-3" d="M5566 3136a11 11 0 1 1 11-11 11.012 11.012 0 0 1-11 11zm0-16a5 5 0 1 0 5 5 5.006 5.006 0 0 0-5-5z" transform="translate(-5464 -2919)"/><circle class="cls-1" cx="176" cy="77" r="8"/><path class="cls-3" d="M5640 3007a11 11 0 1 1 11-11 11.012 11.012 0 0 1-11 11zm0-16a5 5 0 1 0 5 5 5.006 5.006 0 0 0-5-5z" transform="translate(-5464 -2919)"/></svg>